<svg xmlns="http://www.w3.org/2000/svg" xmlns:xlink="http://www.w3.org/1999/xlink" width="54" height="54" viewBox="0 0 54 54">
  <defs>
    <style>
      .cls-1 {
        fill: #f78663;
      }

      .cls-2 {
        fill: #fff;
      }

      .cls-3 {
        filter: url(#Ellipse_6);
      }
    </style>
    <filter id="Ellipse_6" x="0" y="0" width="54" height="54" filterUnits="userSpaceOnUse">
      <feOffset dy="3" input="SourceAlpha"/>
      <feGaussianBlur stdDeviation="3" result="blur"/>
      <feFlood flood-opacity="0.161"/>
      <feComposite operator="in" in2="blur"/>
      <feComposite in="SourceGraphic"/>
    </filter>
  </defs>
  <g id="Non-Branded_Conversions" data-name="Non-Branded Conversions" transform="translate(-774 -2113)">
    <g class="cls-3" transform="matrix(1, 0, 0, 1, 774, 2113)">
      <circle id="Ellipse_6-2" data-name="Ellipse 6" class="cls-1" cx="18" cy="18" r="18" transform="translate(9 6)"/>
    </g>
    <path id="ic_system_update_alt_24px" class="cls-2" d="M10.691,14.953l3.524-3.524H11.572V3.5H9.81v7.929H7.167ZM18.62,3.5H13.334V5.253H18.62v12.36H2.762V5.253H8.048V3.5H2.762A1.767,1.767,0,0,0,1,5.262V17.6a1.767,1.767,0,0,0,1.762,1.762H18.62A1.767,1.767,0,0,0,20.382,17.6V5.262A1.767,1.767,0,0,0,18.62,3.5Z" transform="translate(790.309 2125.571)"/>
  </g>
</svg>
