<svg xmlns="http://www.w3.org/2000/svg" width="1366" height="651" viewBox="0 0 1366 651">
  <defs>
    <style>
      .cls-1 {
        fill: #f3f3f3;
      }

      .cls-2 {
        fill: rgba(0,0,0,0);
        stroke: #c5c5c5;
        opacity: 0.1;
      }
    </style>
  </defs>
  <g id="Contact_Grid" data-name="Contact Grid" transform="translate(0 -4894)">
    <rect id="Rectangle_66" data-name="Rectangle 66" class="cls-1" width="1281" height="515" transform="translate(0 5030)"/>
    <path id="Intersection_4" data-name="Intersection 4" class="cls-2" d="M1331.087,649v-.914h-35.915v0h-35.914v0h-35.914v0h-36.483v0h-35.914v0h-35.914v0h-35.914v0h-35.914v0h-35.915v0H971.379v0H935.465v0H899.552v0H863.638v0H827.155v0H791.241v0H755.327v0H719.413v0H683.5v0H647.586v0H611.672v0H575.759v0H539.845v0H503.362v0H467.448v0H431.534v0H395.62v0H359.707v0H323.793v0H287.879v0H251.966v0H216.052v0H180.139v0H143.654v0H107.741v0H71.827v0H35.914v0h0V612.173h0V576.259h0V540.346h0V503.861h0V467.948h0V432.034h0V396.121h0V360.207h0V324.293h0V288.38h0V252.466h0V216.553h0V180.639h0V144.155h0V108.241h0V72.328h0v0H71.827v0h35.914v0h35.914v0h36.484v0h35.914v0h35.914v0h35.914v0h35.914v0h35.914v0H395.62v0h35.914v0h35.914v0h35.914v0h36.483v0h35.914v0h35.914v0h35.914v0H683.5v0h35.914v0h35.914v0h35.914v0h35.914v0h36.483v0h35.914v0h35.914v0h35.914v0h35.914v0h35.915v0h35.914v0h35.914v0h35.914v0h35.914v0h36.483v0h35.914v0h35.914v0h35.915v0h-35.915v35.914h35.915v0h-35.915v35.914h35.915v0h-35.915v36.484h35.915v0h-35.915v35.914h35.915v0h-35.915v35.914h35.915v0h-35.915V288.38h35.915v0h-35.915v35.914h35.915v0h-35.915v35.914h35.915v0h-35.915v35.914h35.915v0h-35.915v35.914h35.915v0h-35.915v35.914h35.915v0h-35.915v35.914h35.915v0h-35.915v36.484h35.915v0h-35.915v35.914h35.915v0h-35.915v35.914h35.915v0h-35.915v35.914h35.915Zm-35.915-.914V612.173h-35.914v35.914Zm-35.914,0V612.173h-35.914v35.914Zm-35.914,0V612.173h-36.483v35.914Zm-36.483,0V612.173h-35.914v35.914Zm-35.914,0V612.173h-35.914v35.914Zm-35.914,0V612.173h-35.914v35.914Zm-35.914,0V612.173h-35.914v35.914Zm-35.914,0V612.173h-35.915v35.914Zm-35.915,0V612.173H971.379v35.914Zm-35.914,0V612.173H935.465v35.914Zm-35.914,0V612.173H899.552v35.914Zm-35.914,0V612.173H863.638v35.914Zm-35.914,0V612.173H827.155v35.914Zm-36.483,0V612.173H791.241v35.914Zm-35.914,0V612.173H755.327v35.914Zm-35.914,0V612.173H719.413v35.914Zm-35.914,0V612.173H683.5v35.914Zm-35.914,0V612.173H647.586v35.914Zm-35.914,0V612.173H611.672v35.914Zm-35.914,0V612.173H575.759v35.914Zm-35.914,0V612.173H539.845v35.914Zm-35.914,0V612.173H503.362v35.914Zm-36.483,0V612.173H467.448v35.914Zm-35.914,0V612.173H431.534v35.914Zm-35.914,0V612.173H395.62v35.914Zm-35.914,0V612.173H359.707v35.914Zm-35.914,0V612.173H323.793v35.914Zm-35.914,0V612.173H287.879v35.914Zm-35.914,0V612.173H251.966v35.914Zm-35.914,0V612.173H216.052v35.914Zm-35.914,0V612.173H180.139v35.914Zm-35.914,0V612.173H143.654v35.914Zm-36.484,0V612.173H107.741v35.914Zm-35.914,0V612.173H71.827v35.914Zm-35.914,0V612.173H35.914v35.914Zm1223.345-35.914V576.259h-35.914v35.914Zm-35.914,0V576.259h-35.914v35.914Zm-35.914,0V576.259h-36.483v35.914Zm-36.483,0V576.259h-35.914v35.914Zm-35.914,0V576.259h-35.914v35.914Zm-35.914,0V576.259h-35.914v35.914Zm-35.914,0V576.259h-35.914v35.914Zm-35.914,0V576.259h-35.915v35.914Zm-35.915,0V576.259H971.379v35.914Zm-35.914,0V576.259H935.465v35.914Zm-35.914,0V576.259H899.552v35.914Zm-35.914,0V576.259H863.638v35.914Zm-35.914,0V576.259H827.155v35.914Zm-36.483,0V576.259H791.241v35.914Zm-35.914,0V576.259H755.327v35.914Zm-35.914,0V576.259H719.413v35.914Zm-35.914,0V576.259H683.5v35.914Zm-35.914,0V576.259H647.586v35.914Zm-35.914,0V576.259H611.672v35.914Zm-35.914,0V576.259H575.759v35.914Zm-35.914,0V576.259H539.845v35.914Zm-35.914,0V576.259H503.362v35.914Zm-36.483,0V576.259H467.448v35.914Zm-35.914,0V576.259H431.534v35.914Zm-35.914,0V576.259H395.62v35.914Zm-35.914,0V576.259H359.707v35.914Zm-35.914,0V576.259H323.793v35.914Zm-35.914,0V576.259H287.879v35.914Zm-35.914,0V576.259H251.966v35.914Zm-35.914,0V576.259H216.052v35.914Zm-35.914,0V576.259H180.139v35.914Zm-35.914,0V576.259H143.654v35.914Zm-36.484,0V576.259H107.741v35.914Zm-35.914,0V576.259H71.827v35.914Zm-35.914,0V576.259H35.914v35.914Zm1223.345-35.914V540.346h-35.914v35.914Zm-35.914,0V540.346h-35.914v35.914Zm-35.914,0V540.346h-36.483v35.914Zm-36.483,0V540.346h-35.914v35.914Zm-35.914,0V540.346h-35.914v35.914Zm-35.914,0V540.346h-35.914v35.914Zm-35.914,0V540.346h-35.914v35.914Zm-35.914,0V540.346h-35.915v35.914Zm-35.915,0V540.346H971.379v35.914Zm-35.914,0V540.346H935.465v35.914Zm-35.914,0V540.346H899.552v35.914Zm-35.914,0V540.346H863.638v35.914Zm-35.914,0V540.346H827.155v35.914Zm-36.483,0V540.346H791.241v35.914Zm-35.914,0V540.346H755.327v35.914Zm-35.914,0V540.346H719.413v35.914Zm-35.914,0V540.346H683.5v35.914Zm-35.914,0V540.346H647.586v35.914Zm-35.914,0V540.346H611.672v35.914Zm-35.914,0V540.346H575.759v35.914Zm-35.914,0V540.346H539.845v35.914Zm-35.914,0V540.346H503.362v35.914Zm-36.483,0V540.346H467.448v35.914Zm-35.914,0V540.346H431.534v35.914Zm-35.914,0V540.346H395.62v35.914Zm-35.914,0V540.346H359.707v35.914Zm-35.914,0V540.346H323.793v35.914Zm-35.914,0V540.346H287.879v35.914Zm-35.914,0V540.346H251.966v35.914Zm-35.914,0V540.346H216.052v35.914Zm-35.914,0V540.346H180.139v35.914Zm-35.914,0V540.346H143.654v35.914Zm-36.484,0V540.346H107.741v35.914Zm-35.914,0V540.346H71.827v35.914Zm-35.914,0V540.346H35.914v35.914Zm1223.345-35.914V503.861h-35.914v36.484Zm-35.914,0V503.861h-35.914v36.484Zm-35.914,0V503.861h-36.483v36.484Zm-36.483,0V503.861h-35.914v36.484Zm-35.914,0V503.861h-35.914v36.484Zm-35.914,0V503.861h-35.914v36.484Zm-35.914,0V503.861h-35.914v36.484Zm-35.914,0V503.861h-35.915v36.484Zm-35.915,0V503.861H971.379v36.484Zm-35.914,0V503.861H935.465v36.484Zm-35.914,0V503.861H899.552v36.484Zm-35.914,0V503.861H863.638v36.484Zm-35.914,0V503.861H827.155v36.484Zm-36.483,0V503.861H791.241v36.484Zm-35.914,0V503.861H755.327v36.484Zm-35.914,0V503.861H719.413v36.484Zm-35.914,0V503.861H683.5v36.484Zm-35.914,0V503.861H647.586v36.484Zm-35.914,0V503.861H611.672v36.484Zm-35.914,0V503.861H575.759v36.484Zm-35.914,0V503.861H539.845v36.484Zm-35.914,0V503.861H503.362v36.484Zm-36.483,0V503.861H467.448v36.484Zm-35.914,0V503.861H431.534v36.484Zm-35.914,0V503.861H395.62v36.484Zm-35.914,0V503.861H359.707v36.484Zm-35.914,0V503.861H323.793v36.484Zm-35.914,0V503.861H287.879v36.484Zm-35.914,0V503.861H251.966v36.484Zm-35.914,0V503.861H216.052v36.484Zm-35.914,0V503.861H180.139v36.484Zm-35.914,0V503.861H143.654v36.484Zm-36.484,0V503.861H107.741v36.484Zm-35.914,0V503.861H71.827v36.484Zm-35.914,0V503.861H35.914v36.484Zm1223.345-36.484V467.948h-35.914v35.914Zm-35.914,0V467.948h-35.914v35.914Zm-35.914,0V467.948h-36.483v35.914Zm-36.483,0V467.948h-35.914v35.914Zm-35.914,0V467.948h-35.914v35.914Zm-35.914,0V467.948h-35.914v35.914Zm-35.914,0V467.948h-35.914v35.914Zm-35.914,0V467.948h-35.915v35.914Zm-35.915,0V467.948H971.379v35.914Zm-35.914,0V467.948H935.465v35.914Zm-35.914,0V467.948H899.552v35.914Zm-35.914,0V467.948H863.638v35.914Zm-35.914,0V467.948H827.155v35.914Zm-36.483,0V467.948H791.241v35.914Zm-35.914,0V467.948H755.327v35.914Zm-35.914,0V467.948H719.413v35.914Zm-35.914,0V467.948H683.5v35.914Zm-35.914,0V467.948H647.586v35.914Zm-35.914,0V467.948H611.672v35.914Zm-35.914,0V467.948H575.759v35.914Zm-35.914,0V467.948H539.845v35.914Zm-35.914,0V467.948H503.362v35.914Zm-36.483,0V467.948H467.448v35.914Zm-35.914,0V467.948H431.534v35.914Zm-35.914,0V467.948H395.62v35.914Zm-35.914,0V467.948H359.707v35.914Zm-35.914,0V467.948H323.793v35.914Zm-35.914,0V467.948H287.879v35.914Zm-35.914,0V467.948H251.966v35.914Zm-35.914,0V467.948H216.052v35.914Zm-35.914,0V467.948H180.139v35.914Zm-35.914,0V467.948H143.654v35.914Zm-36.484,0V467.948H107.741v35.914Zm-35.914,0V467.948H71.827v35.914Zm-35.914,0V467.948H35.914v35.914Zm1223.345-35.914V432.034h-35.914v35.914Zm-35.914,0V432.034h-35.914v35.914Zm-35.914,0V432.034h-36.483v35.914Zm-36.483,0V432.034h-35.914v35.914Zm-35.914,0V432.034h-35.914v35.914Zm-35.914,0V432.034h-35.914v35.914Zm-35.914,0V432.034h-35.914v35.914Zm-35.914,0V432.034h-35.915v35.914Zm-35.915,0V432.034H971.379v35.914Zm-35.914,0V432.034H935.465v35.914Zm-35.914,0V432.034H899.552v35.914Zm-35.914,0V432.034H863.638v35.914Zm-35.914,0V432.034H827.155v35.914Zm-36.483,0V432.034H791.241v35.914Zm-35.914,0V432.034H755.327v35.914Zm-35.914,0V432.034H719.413v35.914Zm-35.914,0V432.034H683.5v35.914Zm-35.914,0V432.034H647.586v35.914Zm-35.914,0V432.034H611.672v35.914Zm-35.914,0V432.034H575.759v35.914Zm-35.914,0V432.034H539.845v35.914Zm-35.914,0V432.034H503.362v35.914Zm-36.483,0V432.034H467.448v35.914Zm-35.914,0V432.034H431.534v35.914Zm-35.914,0V432.034H395.62v35.914Zm-35.914,0V432.034H359.707v35.914Zm-35.914,0V432.034H323.793v35.914Zm-35.914,0V432.034H287.879v35.914Zm-35.914,0V432.034H251.966v35.914Zm-35.914,0V432.034H216.052v35.914Zm-35.914,0V432.034H180.139v35.914Zm-35.914,0V432.034H143.654v35.914Zm-36.484,0V432.034H107.741v35.914Zm-35.914,0V432.034H71.827v35.914Zm-35.914,0V432.034H35.914v35.914Zm1223.345-35.914V396.121h-35.914v35.914Zm-35.914,0V396.121h-35.914v35.914Zm-35.914,0V396.121h-36.483v35.914Zm-36.483,0V396.121h-35.914v35.914Zm-35.914,0V396.121h-35.914v35.914Zm-35.914,0V396.121h-35.914v35.914Zm-35.914,0V396.121h-35.914v35.914Zm-35.914,0V396.121h-35.915v35.914Zm-35.915,0V396.121H971.379v35.914Zm-35.914,0V396.121H935.465v35.914Zm-35.914,0V396.121H899.552v35.914Zm-35.914,0V396.121H863.638v35.914Zm-35.914,0V396.121H827.155v35.914Zm-36.483,0V396.121H791.241v35.914Zm-35.914,0V396.121H755.327v35.914Zm-35.914,0V396.121H719.413v35.914Zm-35.914,0V396.121H683.5v35.914Zm-35.914,0V396.121H647.586v35.914Zm-35.914,0V396.121H611.672v35.914Zm-35.914,0V396.121H575.759v35.914Zm-35.914,0V396.121H539.845v35.914Zm-35.914,0V396.121H503.362v35.914Zm-36.483,0V396.121H467.448v35.914Zm-35.914,0V396.121H431.534v35.914Zm-35.914,0V396.121H395.62v35.914Zm-35.914,0V396.121H359.707v35.914Zm-35.914,0V396.121H323.793v35.914Zm-35.914,0V396.121H287.879v35.914Zm-35.914,0V396.121H251.966v35.914Zm-35.914,0V396.121H216.052v35.914Zm-35.914,0V396.121H180.139v35.914Zm-35.914,0V396.121H143.654v35.914Zm-36.484,0V396.121H107.741v35.914Zm-35.914,0V396.121H71.827v35.914Zm-35.914,0V396.121H35.914v35.914Zm1223.345-35.914V360.207h-35.914v35.914Zm-35.914,0V360.207h-35.914v35.914Zm-35.914,0V360.207h-36.483v35.914Zm-36.483,0V360.207h-35.914v35.914Zm-35.914,0V360.207h-35.914v35.914Zm-35.914,0V360.207h-35.914v35.914Zm-35.914,0V360.207h-35.914v35.914Zm-35.914,0V360.207h-35.915v35.914Zm-35.915,0V360.207H971.379v35.914Zm-35.914,0V360.207H935.465v35.914Zm-35.914,0V360.207H899.552v35.914Zm-35.914,0V360.207H863.638v35.914Zm-35.914,0V360.207H827.155v35.914Zm-36.483,0V360.207H791.241v35.914Zm-35.914,0V360.207H755.327v35.914Zm-35.914,0V360.207H719.413v35.914Zm-35.914,0V360.207H683.5v35.914Zm-35.914,0V360.207H647.586v35.914Zm-35.914,0V360.207H611.672v35.914Zm-35.914,0V360.207H575.759v35.914Zm-35.914,0V360.207H539.845v35.914Zm-35.914,0V360.207H503.362v35.914Zm-36.483,0V360.207H467.448v35.914Zm-35.914,0V360.207H431.534v35.914Zm-35.914,0V360.207H395.62v35.914Zm-35.914,0V360.207H359.707v35.914Zm-35.914,0V360.207H323.793v35.914Zm-35.914,0V360.207H287.879v35.914Zm-35.914,0V360.207H251.966v35.914Zm-35.914,0V360.207H216.052v35.914Zm-35.914,0V360.207H180.139v35.914Zm-35.914,0V360.207H143.654v35.914Zm-36.484,0V360.207H107.741v35.914Zm-35.914,0V360.207H71.827v35.914Zm-35.914,0V360.207H35.914v35.914Zm1223.345-35.914V324.293h-35.914v35.914Zm-35.914,0V324.293h-35.914v35.914Zm-35.914,0V324.293h-36.483v35.914Zm-36.483,0V324.293h-35.914v35.914Zm-35.914,0V324.293h-35.914v35.914Zm-35.914,0V324.293h-35.914v35.914Zm-35.914,0V324.293h-35.914v35.914Zm-35.914,0V324.293h-35.915v35.914Zm-35.915,0V324.293H971.379v35.914Zm-35.914,0V324.293H935.465v35.914Zm-35.914,0V324.293H899.552v35.914Zm-35.914,0V324.293H863.638v35.914Zm-35.914,0V324.293H827.155v35.914Zm-36.483,0V324.293H791.241v35.914Zm-35.914,0V324.293H755.327v35.914Zm-35.914,0V324.293H719.413v35.914Zm-35.914,0V324.293H683.5v35.914Zm-35.914,0V324.293H647.586v35.914Zm-35.914,0V324.293H611.672v35.914Zm-35.914,0V324.293H575.759v35.914Zm-35.914,0V324.293H539.845v35.914Zm-35.914,0V324.293H503.362v35.914Zm-36.483,0V324.293H467.448v35.914Zm-35.914,0V324.293H431.534v35.914Zm-35.914,0V324.293H395.62v35.914Zm-35.914,0V324.293H359.707v35.914Zm-35.914,0V324.293H323.793v35.914Zm-35.914,0V324.293H287.879v35.914Zm-35.914,0V324.293H251.966v35.914Zm-35.914,0V324.293H216.052v35.914Zm-35.914,0V324.293H180.139v35.914Zm-35.914,0V324.293H143.654v35.914Zm-36.484,0V324.293H107.741v35.914Zm-35.914,0V324.293H71.827v35.914Zm-35.914,0V324.293H35.914v35.914Zm1223.345-35.914V288.38h-35.914v35.914Zm-35.914,0V288.38h-35.914v35.914Zm-35.914,0V288.38h-36.483v35.914Zm-36.483,0V288.38h-35.914v35.914Zm-35.914,0V288.38h-35.914v35.914Zm-35.914,0V288.38h-35.914v35.914Zm-35.914,0V288.38h-35.914v35.914Zm-35.914,0V288.38h-35.915v35.914Zm-35.915,0V288.38H971.379v35.914Zm-35.914,0V288.38H935.465v35.914Zm-35.914,0V288.38H899.552v35.914Zm-35.914,0V288.38H863.638v35.914Zm-35.914,0V288.38H827.155v35.914Zm-36.483,0V288.38H791.241v35.914Zm-35.914,0V288.38H755.327v35.914Zm-35.914,0V288.38H719.413v35.914Zm-35.914,0V288.38H683.5v35.914Zm-35.914,0V288.38H647.586v35.914Zm-35.914,0V288.38H611.672v35.914Zm-35.914,0V288.38H575.759v35.914Zm-35.914,0V288.38H539.845v35.914Zm-35.914,0V288.38H503.362v35.914Zm-36.483,0V288.38H467.448v35.914Zm-35.914,0V288.38H431.534v35.914Zm-35.914,0V288.38H395.62v35.914Zm-35.914,0V288.38H359.707v35.914Zm-35.914,0V288.38H323.793v35.914Zm-35.914,0V288.38H287.879v35.914Zm-35.914,0V288.38H251.966v35.914Zm-35.914,0V288.38H216.052v35.914Zm-35.914,0V288.38H180.139v35.914Zm-35.914,0V288.38H143.654v35.914Zm-36.484,0V288.38H107.741v35.914Zm-35.914,0V288.38H71.827v35.914Zm-35.914,0V288.38H35.914v35.914ZM1295.172,288.38V252.466h-35.914V288.38Zm-35.914,0V252.466h-35.914V288.38Zm-35.914,0V252.466h-36.483V288.38Zm-36.483,0V252.466h-35.914V288.38Zm-35.914,0V252.466h-35.914V288.38Zm-35.914,0V252.466h-35.914V288.38Zm-35.914,0V252.466h-35.914V288.38Zm-35.914,0V252.466h-35.915V288.38Zm-35.915,0V252.466H971.379V288.38Zm-35.914,0V252.466H935.465V288.38Zm-35.914,0V252.466H899.552V288.38Zm-35.914,0V252.466H863.638V288.38Zm-35.914,0V252.466H827.155V288.38Zm-36.483,0V252.466H791.241V288.38Zm-35.914,0V252.466H755.327V288.38Zm-35.914,0V252.466H719.413V288.38Zm-35.914,0V252.466H683.5V288.38Zm-35.914,0V252.466H647.586V288.38Zm-35.914,0V252.466H611.672V288.38Zm-35.914,0V252.466H575.759V288.38Zm-35.914,0V252.466H539.845V288.38Zm-35.914,0V252.466H503.362V288.38Zm-36.483,0V252.466H467.448V288.38Zm-35.914,0V252.466H431.534V288.38Zm-35.914,0V252.466H395.62V288.38Zm-35.914,0V252.466H359.707V288.38Zm-35.914,0V252.466H323.793V288.38Zm-35.914,0V252.466H287.879V288.38Zm-35.914,0V252.466H251.966V288.38Zm-35.914,0V252.466H216.052V288.38Zm-35.914,0V252.466H180.139V288.38Zm-35.914,0V252.466H143.654V288.38Zm-36.484,0V252.466H107.741V288.38Zm-35.914,0V252.466H71.827V288.38Zm-35.914,0V252.466H35.914V288.38Zm1223.345-35.914V216.553h-35.914v35.914Zm-35.914,0V216.553h-35.914v35.914Zm-35.914,0V216.553h-36.483v35.914Zm-36.483,0V216.553h-35.914v35.914Zm-35.914,0V216.553h-35.914v35.914Zm-35.914,0V216.553h-35.914v35.914Zm-35.914,0V216.553h-35.914v35.914Zm-35.914,0V216.553h-35.915v35.914Zm-35.915,0V216.553H971.379v35.914Zm-35.914,0V216.553H935.465v35.914Zm-35.914,0V216.553H899.552v35.914Zm-35.914,0V216.553H863.638v35.914Zm-35.914,0V216.553H827.155v35.914Zm-36.483,0V216.553H791.241v35.914Zm-35.914,0V216.553H755.327v35.914Zm-35.914,0V216.553H719.413v35.914Zm-35.914,0V216.553H683.5v35.914Zm-35.914,0V216.553H647.586v35.914Zm-35.914,0V216.553H611.672v35.914Zm-35.914,0V216.553H575.759v35.914Zm-35.914,0V216.553H539.845v35.914Zm-35.914,0V216.553H503.362v35.914Zm-36.483,0V216.553H467.448v35.914Zm-35.914,0V216.553H431.534v35.914Zm-35.914,0V216.553H395.62v35.914Zm-35.914,0V216.553H359.707v35.914Zm-35.914,0V216.553H323.793v35.914Zm-35.914,0V216.553H287.879v35.914Zm-35.914,0V216.553H251.966v35.914Zm-35.914,0V216.553H216.052v35.914Zm-35.914,0V216.553H180.139v35.914Zm-35.914,0V216.553H143.654v35.914Zm-36.484,0V216.553H107.741v35.914Zm-35.914,0V216.553H71.827v35.914Zm-35.914,0V216.553H35.914v35.914Zm1223.345-35.914V180.639h-35.914v35.914Zm-35.914,0V180.639h-35.914v35.914Zm-35.914,0V180.639h-36.483v35.914Zm-36.483,0V180.639h-35.914v35.914Zm-35.914,0V180.639h-35.914v35.914Zm-35.914,0V180.639h-35.914v35.914Zm-35.914,0V180.639h-35.914v35.914Zm-35.914,0V180.639h-35.915v35.914Zm-35.915,0V180.639H971.379v35.914Zm-35.914,0V180.639H935.465v35.914Zm-35.914,0V180.639H899.552v35.914Zm-35.914,0V180.639H863.638v35.914Zm-35.914,0V180.639H827.155v35.914Zm-36.483,0V180.639H791.241v35.914Zm-35.914,0V180.639H755.327v35.914Zm-35.914,0V180.639H719.413v35.914Zm-35.914,0V180.639H683.5v35.914Zm-35.914,0V180.639H647.586v35.914Zm-35.914,0V180.639H611.672v35.914Zm-35.914,0V180.639H575.759v35.914Zm-35.914,0V180.639H539.845v35.914Zm-35.914,0V180.639H503.362v35.914Zm-36.483,0V180.639H467.448v35.914Zm-35.914,0V180.639H431.534v35.914Zm-35.914,0V180.639H395.62v35.914Zm-35.914,0V180.639H359.707v35.914Zm-35.914,0V180.639H323.793v35.914Zm-35.914,0V180.639H287.879v35.914Zm-35.914,0V180.639H251.966v35.914Zm-35.914,0V180.639H216.052v35.914Zm-35.914,0V180.639H180.139v35.914Zm-35.914,0V180.639H143.654v35.914Zm-36.484,0V180.639H107.741v35.914Zm-35.914,0V180.639H71.827v35.914Zm-35.914,0V180.639H35.914v35.914Zm1223.345-35.914V144.155h-35.914v36.484Zm-35.914,0V144.155h-35.914v36.484Zm-35.914,0V144.155h-36.483v36.484Zm-36.483,0V144.155h-35.914v36.484Zm-35.914,0V144.155h-35.914v36.484Zm-35.914,0V144.155h-35.914v36.484Zm-35.914,0V144.155h-35.914v36.484Zm-35.914,0V144.155h-35.915v36.484Zm-35.915,0V144.155H971.379v36.484Zm-35.914,0V144.155H935.465v36.484Zm-35.914,0V144.155H899.552v36.484Zm-35.914,0V144.155H863.638v36.484Zm-35.914,0V144.155H827.155v36.484Zm-36.483,0V144.155H791.241v36.484Zm-35.914,0V144.155H755.327v36.484Zm-35.914,0V144.155H719.413v36.484Zm-35.914,0V144.155H683.5v36.484Zm-35.914,0V144.155H647.586v36.484Zm-35.914,0V144.155H611.672v36.484Zm-35.914,0V144.155H575.759v36.484Zm-35.914,0V144.155H539.845v36.484Zm-35.914,0V144.155H503.362v36.484Zm-36.483,0V144.155H467.448v36.484Zm-35.914,0V144.155H431.534v36.484Zm-35.914,0V144.155H395.62v36.484Zm-35.914,0V144.155H359.707v36.484Zm-35.914,0V144.155H323.793v36.484Zm-35.914,0V144.155H287.879v36.484Zm-35.914,0V144.155H251.966v36.484Zm-35.914,0V144.155H216.052v36.484Zm-35.914,0V144.155H180.139v36.484Zm-35.914,0V144.155H143.654v36.484Zm-36.484,0V144.155H107.741v36.484Zm-35.914,0V144.155H71.827v36.484Zm-35.914,0V144.155H35.914v36.484Zm1223.345-36.484V108.241h-35.914v35.914Zm-35.914,0V108.241h-35.914v35.914Zm-35.914,0V108.241h-36.483v35.914Zm-36.483,0V108.241h-35.914v35.914Zm-35.914,0V108.241h-35.914v35.914Zm-35.914,0V108.241h-35.914v35.914Zm-35.914,0V108.241h-35.914v35.914Zm-35.914,0V108.241h-35.915v35.914Zm-35.915,0V108.241H971.379v35.914Zm-35.914,0V108.241H935.465v35.914Zm-35.914,0V108.241H899.552v35.914Zm-35.914,0V108.241H863.638v35.914Zm-35.914,0V108.241H827.155v35.914Zm-36.483,0V108.241H791.241v35.914Zm-35.914,0V108.241H755.327v35.914Zm-35.914,0V108.241H719.413v35.914Zm-35.914,0V108.241H683.5v35.914Zm-35.914,0V108.241H647.586v35.914Zm-35.914,0V108.241H611.672v35.914Zm-35.914,0V108.241H575.759v35.914Zm-35.914,0V108.241H539.845v35.914Zm-35.914,0V108.241H503.362v35.914Zm-36.483,0V108.241H467.448v35.914Zm-35.914,0V108.241H431.534v35.914Zm-35.914,0V108.241H395.62v35.914Zm-35.914,0V108.241H359.707v35.914Zm-35.914,0V108.241H323.793v35.914Zm-35.914,0V108.241H287.879v35.914Zm-35.914,0V108.241H251.966v35.914Zm-35.914,0V108.241H216.052v35.914Zm-35.914,0V108.241H180.139v35.914Zm-35.914,0V108.241H143.654v35.914Zm-36.484,0V108.241H107.741v35.914Zm-35.914,0V108.241H71.827v35.914Zm-35.914,0V108.241H35.914v35.914Zm1223.345-35.914V72.328h-35.914v35.914Zm-35.914,0V72.328h-35.914v35.914Zm-35.914,0V72.328h-36.483v35.914Zm-36.483,0V72.328h-35.914v35.914Zm-35.914,0V72.328h-35.914v35.914Zm-35.914,0V72.328h-35.914v35.914Zm-35.914,0V72.328h-35.914v35.914Zm-35.914,0V72.328h-35.915v35.914Zm-35.915,0V72.328H971.379v35.914Zm-35.914,0V72.328H935.465v35.914Zm-35.914,0V72.328H899.552v35.914Zm-35.914,0V72.328H863.638v35.914Zm-35.914,0V72.328H827.155v35.914Zm-36.483,0V72.328H791.241v35.914Zm-35.914,0V72.328H755.327v35.914Zm-35.914,0V72.328H719.413v35.914Zm-35.914,0V72.328H683.5v35.914Zm-35.914,0V72.328H647.586v35.914Zm-35.914,0V72.328H611.672v35.914Zm-35.914,0V72.328H575.759v35.914Zm-35.914,0V72.328H539.845v35.914Zm-35.914,0V72.328H503.362v35.914Zm-36.483,0V72.328H467.448v35.914Zm-35.914,0V72.328H431.534v35.914Zm-35.914,0V72.328H395.62v35.914Zm-35.914,0V72.328H359.707v35.914Zm-35.914,0V72.328H323.793v35.914Zm-35.914,0V72.328H287.879v35.914Zm-35.914,0V72.328H251.966v35.914Zm-35.914,0V72.328H216.052v35.914Zm-35.914,0V72.328H180.139v35.914Zm-35.914,0V72.328H143.654v35.914Zm-36.484,0V72.328H107.741v35.914Zm-35.914,0V72.328H71.827v35.914Zm-35.914,0V72.328H35.914v35.914ZM1331.087,648.086h0Zm0-35.914h0Zm0-35.914h0Zm0-35.914h0Zm0-36.484h0Zm0-35.914h0Zm0-35.914h0Zm0-35.914h0Zm0-35.914h0Zm0-35.914h0Zm0-35.914h0Zm0-35.914h0Zm0-35.914h0Zm0-35.914h0Zm0-36.484h0Zm0-35.914h0Zm0-35.914h0Zm0,0v0Zm0-35.914H35.914v0H71.827v0h35.914v0h35.914v0h36.484v0h35.914v0h35.914v0h35.914v0h35.914v0h35.914v0H395.62v0h35.914v0h35.914v0h35.914v0h36.483v0h35.914v0h35.914v0h35.914v0H683.5v0h35.914v0h35.914v0h35.914v0h35.914v0h36.483v0h35.914v0h35.914v0h35.914v0h35.914v0h35.915v0h35.914v0h35.914v0h35.914v0h35.914v0h36.483v0h35.914v0h35.914v0h35.915v0h0Zm0-35.914h0Zm-35.915,0h0ZM1331.087.5Zm-71.828,0h0ZM1295.172.5Zm-71.827,0h0ZM1259.258.5Zm-72.4,0h0ZM1223.345.5Zm-72.4,0h0ZM1186.862.5Zm-71.827,0h0ZM1150.948.5Zm-71.827,0h0ZM1115.034.5Zm-71.827,0h0ZM1079.121.5Zm-71.828,0h0ZM1043.207.5ZM971.379.5h0ZM1007.293.5ZM935.465.5h0ZM971.379.5ZM899.552.5h0ZM935.465.5ZM863.638.5h0ZM899.552.5Zm-72.4,0h0ZM863.638.5Zm-72.4,0h0ZM827.155.5ZM755.327.5h0ZM791.241.5ZM719.413.5h0ZM755.327.5ZM683.5.5h0ZM719.413.5ZM647.586.5h0ZM683.5.5ZM611.672.5h0ZM647.586.5ZM575.759.5h0ZM611.672.5ZM539.845.5h0ZM575.759.5Zm-72.4,0h0ZM539.845.5Zm-72.4,0h0ZM503.362.5ZM431.534.5h0ZM467.448.5ZM395.62.5h0ZM431.534.5ZM359.707.5h0ZM395.62.5ZM323.793.5h0ZM359.707.5ZM287.879.5h0ZM323.793.5ZM251.966.5h0ZM287.879.5ZM216.052.5h0ZM251.966.5ZM180.139.5h0ZM216.052.5Zm-72.4,0h0ZM180.139.5Zm-72.4,0h0ZM143.654.5ZM71.827.5h0ZM107.741.5ZM35.914.5h0ZM71.827.5ZM.5.5h0ZM35.914.5Z" transform="translate(-0.5 4894)"/>
  </g>
</svg>
